<?xml version="1.0" standalone="no"?>
<!DOCTYPE svg PUBLIC "-//W3C//DTD SVG 20010904//EN"
 "http://www.w3.org/TR/2001/REC-SVG-20010904/DTD/svg10.dtd">
<svg version="1.0" xmlns="http://www.w3.org/2000/svg"
 width="1563.000000pt" height="791.000000pt" viewBox="0 0 1563.000000 791.000000"
 preserveAspectRatio="xMidYMid meet">
<metadata>
Created by potrace 1.16, written by Peter Selinger 2001-2019
</metadata>
<g transform="translate(0.000000,791.000000) scale(0.100000,-0.100000)"
fill="#000000" stroke="none">
<path d="M5670 7647 c-20 -10 -26 -21 -28 -57 -2 -42 2 -50 66 -130 37 -47
113 -144 167 -215 55 -72 117 -153 140 -181 22 -27 74 -95 117 -150 42 -54
131 -169 197 -254 66 -85 121 -158 121 -162 0 -5 -602 -8 -1337 -8 -1194 0
-1400 -4 -1420 -23 -2 -3 -7 -23 -10 -44 -5 -35 1 -45 69 -135 73 -98 303
-398 476 -622 279 -361 266 -343 254 -384 -12 -43 -29 -125 -41 -198 -5 -28
-14 -61 -20 -72 -6 -11 -11 -36 -11 -55 0 -19 -7 -51 -15 -70 -8 -20 -15 -52
-15 -70 0 -19 -7 -51 -15 -70 -8 -20 -15 -54 -15 -75 0 -21 -4 -42 -10 -48 -5
-5 -12 -32 -16 -59 -3 -28 -12 -67 -20 -88 -8 -20 -14 -55 -14 -77 0 -21 -4
-41 -9 -45 -6 -3 -13 -27 -16 -53 -3 -26 -12 -69 -20 -96 -8 -26 -15 -63 -15
-80 0 -18 -4 -36 -9 -41 -5 -6 -14 -37 -20 -70 -5 -33 -17 -91 -26 -130 -22
-94 -44 -198 -56 -264 -5 -29 -14 -62 -19 -72 -6 -10 -10 -34 -10 -54 0 -19
-7 -52 -15 -72 -8 -19 -15 -50 -15 -68 0 -18 -7 -49 -15 -68 -8 -20 -15 -53
-15 -74 -1 -21 -7 -49 -15 -63 -8 -14 -14 -41 -15 -61 0 -20 -7 -53 -15 -72
-8 -20 -15 -52 -15 -70 0 -19 -7 -51 -15 -70 -8 -20 -15 -54 -15 -76 0 -22 -4
-42 -9 -46 -6 -3 -12 -27 -16 -53 -3 -26 -10 -62 -16 -79 -6 -18 -14 -54 -19
-80 -22 -114 -58 -276 -70 -318 -5 -16 -12 -52 -16 -80 -3 -27 -9 -54 -13 -60
-5 -9 -22 -84 -37 -170 -3 -16 -7 -40 -10 -52 l-4 -23 -225 0 -225 0 0 24 c0
13 7 40 15 59 8 20 15 49 15 64 0 15 7 46 15 68 8 22 14 56 15 75 0 20 4 40
10 46 5 5 12 32 16 59 3 28 12 67 20 88 8 20 14 54 14 75 0 21 5 43 10 48 6 6
13 35 17 65 3 30 10 59 15 66 5 6 12 43 15 82 5 60 3 74 -12 91 -10 11 -24 20
-32 20 -7 0 -13 4 -13 10 0 5 -12 13 -26 16 -14 4 -37 17 -52 31 -14 13 -36
26 -49 29 -13 4 -23 10 -23 14 0 5 -10 12 -22 16 -12 3 -28 12 -35 18 -31 27
-41 34 -61 40 -12 4 -22 12 -22 17 0 5 -6 9 -14 9 -7 0 -19 7 -26 15 -7 8 -20
15 -30 15 -10 0 -20 7 -24 15 -3 8 -17 15 -31 15 -16 0 -25 6 -25 15 0 8 -6
15 -14 15 -8 0 -16 7 -20 15 -3 8 -17 15 -31 15 -16 0 -25 6 -25 15 0 8 -8 15
-19 15 -10 0 -24 7 -31 15 -7 8 -18 15 -25 15 -7 0 -15 7 -19 15 -3 8 -14 15
-25 15 -10 0 -21 7 -25 15 -3 8 -12 15 -21 15 -8 0 -15 4 -15 10 0 5 -11 12
-25 16 -14 3 -25 10 -25 14 0 5 -10 12 -22 16 -13 4 -37 17 -54 30 -17 13 -36
24 -42 24 -6 0 -17 6 -24 13 -19 16 -48 35 -75 47 -13 5 -23 14 -23 20 0 5 -9
10 -20 10 -11 0 -23 7 -26 15 -4 8 -12 15 -19 15 -7 0 -18 7 -25 15 -7 8 -21
15 -31 15 -11 0 -19 5 -19 10 0 6 -10 15 -22 20 -34 15 -62 33 -71 48 -4 6
-17 12 -27 12 -10 0 -23 6 -27 13 -4 6 -24 21 -43 31 -19 10 -61 36 -94 57
-32 22 -65 39 -72 39 -8 0 -17 7 -20 15 -4 8 -11 15 -17 15 -6 0 -18 6 -26 14
-9 8 -39 18 -66 21 -68 9 -101 -16 -110 -83 -3 -26 -10 -62 -16 -79 -6 -18
-14 -54 -19 -80 -12 -58 -34 -164 -55 -258 -22 -96 -43 -199 -56 -264 -5 -29
-14 -62 -19 -72 -6 -10 -10 -33 -10 -52 0 -19 -7 -51 -15 -70 -8 -20 -15 -52
-15 -70 0 -19 -7 -51 -15 -70 -8 -20 -15 -53 -15 -74 -1 -21 -7 -49 -15 -63
-8 -14 -14 -41 -15 -61 0 -20 -7 -53 -15 -72 -8 -20 -15 -54 -15 -75 0 -21 -5
-43 -11 -49 -5 -5 -13 -37 -16 -69 -3 -32 -10 -64 -14 -70 -5 -6 -12 -33 -15
-60 -3 -27 -10 -60 -15 -74 -5 -14 -14 -48 -19 -75 -5 -28 -16 -81 -25 -120
-9 -38 -23 -99 -30 -135 -19 -89 -44 -202 -61 -280 -8 -36 -19 -85 -23 -110
-8 -46 -20 -99 -41 -180 -6 -25 -15 -67 -19 -95 -5 -27 -13 -63 -19 -78 -20
-47 -15 -175 9 -241 84 -240 208 -359 452 -435 67 -20 73 -21 1877 -21 1783
-1 1809 -1 1848 19 21 11 62 38 90 60 48 38 55 41 94 35 24 -4 49 -11 56 -17
27 -21 288 -45 305 -28 6 6 38 11 72 11 34 0 72 7 89 15 15 8 37 15 48 15 25
0 95 32 174 81 35 21 67 39 70 39 5 0 71 50 153 116 24 19 53 46 63 60 11 13
24 22 29 19 5 -4 9 -75 9 -159 0 -134 2 -155 18 -169 27 -24 87 -47 125 -47
18 0 38 -5 44 -11 16 -16 254 -22 368 -9 55 6 137 14 183 18 115 11 116 12
122 174 l5 132 80 -119 c44 -66 93 -134 109 -152 l28 -33 132 0 c97 0 138 4
160 15 15 8 44 15 62 15 19 0 51 7 71 15 43 18 77 19 106 3 12 -7 49 -15 82
-19 33 -4 87 -13 120 -19 71 -14 302 -7 318 9 6 6 40 11 74 11 54 0 68 4 88
25 17 16 25 35 25 59 0 54 29 96 66 96 39 0 64 -27 64 -69 0 -24 9 -42 35 -68
32 -32 39 -34 73 -29 20 4 76 10 124 14 49 5 93 13 100 20 7 7 39 12 73 12 34
0 72 7 89 15 36 19 66 19 102 0 16 -8 36 -15 45 -15 9 0 30 -7 45 -15 16 -8
39 -15 50 -15 12 0 35 -7 50 -15 16 -8 40 -15 54 -15 15 0 31 -5 36 -10 6 -6
35 -13 65 -17 30 -3 60 -10 67 -16 18 -14 191 -29 342 -29 126 -1 230 11 266
29 10 6 36 13 57 17 37 7 105 44 207 114 25 17 70 59 100 94 30 35 57 65 61
68 16 12 109 212 109 234 0 13 7 40 15 59 11 27 15 76 15 187 0 127 -2 150
-15 150 -12 0 -15 13 -15 60 0 47 -3 60 -15 60 -10 0 -15 10 -15 30 0 20 -5
30 -15 30 -8 0 -15 5 -15 10 0 13 -37 50 -50 50 -19 0 -14 136 6 164 8 11 14
34 14 51 1 16 7 41 15 55 8 14 15 43 15 65 0 22 7 49 15 59 8 11 15 39 15 62
0 24 4 45 9 49 5 3 12 19 16 35 8 35 21 39 30 10 4 -11 17 -27 30 -36 26 -17
80 -16 380 6 141 11 162 10 186 -4 15 -9 40 -16 56 -16 16 0 50 -7 76 -16 73
-25 470 -10 569 22 35 11 48 57 48 176 l1 113 22 -29 c28 -36 77 -106 122
-171 74 -109 54 -100 222 -98 l148 2 55 -31 c76 -43 336 -217 473 -318 87 -63
360 -306 447 -396 102 -106 229 -266 300 -379 62 -98 100 -166 100 -178 0 -8
7 -20 15 -27 8 -7 15 -18 15 -24 1 -6 9 -29 20 -51 11 -22 19 -45 20 -52 0 -6
6 -24 14 -40 21 -43 37 -92 50 -158 7 -33 18 -70 24 -82 7 -12 12 -41 12 -65
0 -24 7 -56 15 -72 8 -15 15 -35 15 -42 0 -10 14 -14 49 -14 49 0 49 0 41 28
-14 46 -32 125 -40 172 -9 54 -40 177 -51 205 -11 27 -38 103 -49 140 -15 47
-114 236 -166 317 -149 228 -308 407 -539 607 -55 47 -107 92 -115 100 -35 34
-217 164 -370 265 -91 60 -177 117 -192 127 -15 11 -31 19 -36 19 -10 0 -42
33 -42 43 0 4 17 7 38 7 54 0 123 25 159 58 l30 28 8 155 c9 184 9 161 1 234
-10 90 -2 95 80 54 37 -19 88 -53 112 -76 39 -37 44 -45 37 -70 -14 -47 -17
-334 -5 -375 9 -31 17 -39 48 -48 84 -23 407 0 512 36 37 13 53 14 89 4 91
-24 397 -365 498 -555 131 -245 178 -404 216 -725 11 -100 13 -105 39 -114 20
-7 33 -5 53 8 25 17 26 18 9 37 -16 17 -63 222 -64 278 0 21 -11 63 -42 156
-5 17 -16 53 -24 80 -24 89 -170 364 -257 485 -48 68 -141 175 -226 263 l-144
147 12 75 c8 48 12 179 11 372 -2 200 1 307 9 326 6 16 11 57 11 92 l0 63 83
7 c128 11 258 32 269 43 22 22 33 243 26 555 -2 95 -7 130 -17 136 -22 14
-199 12 -331 -4 -69 -8 -150 -15 -180 -15 -30 0 -107 -7 -170 -15 -185 -24
-420 -45 -490 -45 -36 0 -84 -5 -108 -10 -38 -9 -46 -7 -83 17 -38 25 -51 27
-182 33 -78 3 -214 4 -302 1 l-160 -6 -3 -31 c-3 -28 -7 -32 -52 -42 -50 -12
-110 -1 -110 19 0 5 -5 9 -11 9 -6 0 -29 15 -50 34 -22 18 -52 36 -67 39 -65
13 -368 193 -557 330 -79 57 -214 175 -260 226 -16 19 -38 43 -49 55 -77 87
-138 191 -184 315 -15 41 -32 76 -39 78 -6 2 -21 -25 -34 -64 -21 -60 -24 -87
-23 -218 0 -126 3 -161 21 -215 55 -167 136 -298 280 -452 35 -37 63 -72 63
-78 0 -5 -12 -10 -27 -10 -18 0 -39 14 -71 48 -224 240 -325 463 -327 717 0
111 8 155 47 250 26 62 44 142 35 151 -13 14 -43 -26 -86 -113 -24 -49 -51
-101 -59 -118 -18 -35 -30 -245 -15 -245 14 0 39 -64 58 -150 34 -149 116
-309 235 -456 50 -61 61 -81 52 -93 -13 -21 -51 -16 -79 11 -39 37 -144 190
-184 271 -22 43 -51 115 -66 160 -14 45 -28 84 -30 87 -8 9 -23 -25 -54 -120
-28 -86 -32 -109 -35 -240 -2 -80 -3 -148 -3 -152 -2 -16 -31 -7 -40 11 -16
29 -23 170 -12 236 16 98 30 158 45 195 24 62 44 134 49 177 5 38 3 42 -12 33
-10 -5 -23 -15 -30 -23 -17 -22 -71 -135 -71 -151 0 -8 -6 -27 -14 -43 -8 -15
-19 -48 -26 -73 -6 -25 -15 -61 -20 -80 -5 -19 -10 -79 -10 -132 0 -95 -1 -98
-22 -99 -13 0 -111 -2 -218 -4 -281 -5 -454 -27 -555 -68 -62 -26 -101 -26
-68 -1 10 7 25 14 34 14 9 0 28 9 42 20 14 12 48 30 74 41 71 31 118 52 216
98 48 23 93 39 99 35 7 -4 8 -3 4 4 -4 7 -2 12 4 12 47 0 110 98 130 204 5 28
16 83 25 121 8 39 21 102 29 140 8 39 22 104 32 145 9 41 20 98 24 125 4 28
12 63 18 78 7 16 12 45 12 66 0 20 5 42 10 47 6 6 13 35 17 65 3 30 10 62 15
73 6 10 14 42 19 70 13 79 30 156 45 210 8 26 14 63 14 80 0 18 4 36 9 42 5 5
14 36 20 69 16 92 32 167 42 202 6 18 14 54 19 80 20 104 32 159 41 190 6 17
14 56 20 85 5 29 16 85 25 123 32 147 45 212 53 260 4 28 13 63 19 78 7 16 12
44 12 63 0 20 5 45 11 56 6 11 15 44 20 72 14 87 30 159 45 206 20 65 20 303
-1 320 -8 7 -15 26 -15 42 0 16 -6 31 -15 34 -8 4 -15 17 -15 30 0 14 -7 27
-15 30 -8 4 -15 15 -15 25 0 11 -7 22 -15 25 -8 4 -15 10 -15 15 0 11 -116
128 -166 167 -23 18 -51 32 -63 32 -12 0 -24 7 -27 15 -4 8 -18 15 -31 15 -14
0 -32 8 -39 18 -12 16 -144 17 -2506 19 -2000 2 -2498 0 -2518 -10z m4968
-269 c96 -48 200 -168 238 -274 17 -48 17 -55 2 -110 -16 -57 -27 -106 -63
-279 -9 -44 -21 -96 -26 -115 -6 -19 -14 -57 -19 -85 -5 -27 -16 -79 -24 -115
-30 -135 -67 -306 -81 -375 -12 -57 -34 -160 -46 -205 -6 -25 -14 -65 -18 -90
-4 -25 -13 -63 -18 -85 -6 -22 -19 -76 -28 -120 -9 -44 -23 -107 -30 -140 -8
-33 -21 -96 -30 -140 -9 -44 -23 -103 -31 -131 -8 -28 -14 -63 -14 -78 0 -15
-5 -36 -10 -46 -6 -10 -14 -45 -19 -77 -5 -32 -14 -78 -20 -103 -12 -45 -35
-149 -46 -205 -11 -54 -33 -158 -50 -230 -8 -38 -22 -99 -30 -135 -23 -109
-27 -125 -37 -137 -6 -7 -205 -110 -444 -229 -496 -247 -441 -230 -754 -233
-178 -1 -236 -6 -301 -22 -31 -8 -40 -16 -56 -57 -11 -26 -26 -87 -32 -137 -7
-49 -14 -99 -16 -110 -4 -17 -35 -39 -85 -59 -8 -3 -22 -10 -30 -15 -8 -5 -22
-12 -30 -15 -8 -3 -22 -10 -30 -15 -48 -30 -384 -190 -388 -186 -9 9 -30 76
-37 117 -4 21 -11 40 -16 44 -5 3 -9 15 -9 27 0 12 -6 42 -14 67 -8 25 -21 71
-30 103 -24 88 -46 167 -60 217 -18 63 -43 150 -61 215 -8 30 -22 81 -31 113
-9 31 -22 77 -30 102 -8 25 -14 55 -14 67 0 12 -4 25 -10 28 -5 3 -10 16 -9
28 0 19 85 64 608 324 l609 303 15 62 c8 35 21 86 27 113 7 28 16 73 20 102 5
28 11 57 15 63 4 6 11 35 16 63 12 78 29 158 40 194 6 18 14 54 19 80 19 100
75 361 146 678 9 39 17 95 17 125 l2 55 -546 3 -545 2 -21 -22 c-13 -14 -25
-48 -32 -83 -5 -33 -17 -91 -26 -130 -9 -38 -22 -99 -30 -135 -8 -36 -21 -96
-30 -135 -9 -38 -20 -91 -25 -116 -4 -25 -13 -64 -18 -85 -6 -21 -18 -75 -27
-119 -9 -44 -23 -103 -31 -131 -8 -28 -14 -61 -14 -74 0 -13 -6 -46 -14 -74
-14 -49 -25 -100 -61 -271 -9 -44 -21 -94 -26 -112 -6 -17 -14 -56 -20 -85 -5
-29 -15 -80 -22 -112 -14 -65 -18 -68 -162 -166 -37 -25 -72 -50 -78 -56 -7
-5 -19 -13 -27 -17 -8 -4 -42 -26 -75 -50 -65 -47 -74 -67 -56 -126 5 -20 17
-63 27 -96 9 -33 22 -80 29 -105 12 -42 21 -73 60 -215 8 -30 22 -79 31 -108
17 -58 16 -150 -4 -229 -24 -95 -35 -144 -43 -188 -15 -82 -30 -155 -40 -187
-6 -18 -14 -54 -19 -80 -10 -51 -31 -148 -54 -253 -43 -199 -74 -343 -86 -407
-6 -29 -15 -64 -20 -78 -6 -15 -10 -38 -10 -53 0 -15 -6 -37 -13 -50 -12 -22
-17 -23 -206 -27 -182 -5 -355 -23 -427 -46 -24 -7 -33 -17 -38 -40 l-6 -31
-47 46 c-106 105 -315 186 -538 209 l-120 13 2 39 c1 22 7 56 12 75 6 19 17
71 26 115 9 44 21 98 27 120 5 22 13 60 17 85 4 25 13 63 18 85 6 22 19 76 28
120 9 44 23 103 31 131 8 28 14 62 14 77 0 14 5 38 11 54 6 15 15 51 19 78 5
28 13 68 18 90 6 22 18 76 27 120 9 44 21 96 26 115 6 19 14 58 19 85 5 28 16
82 25 120 9 39 23 102 31 140 27 129 42 199 59 270 9 39 20 91 25 116 4 25 13
64 18 85 6 21 18 75 27 119 9 44 23 103 31 131 8 28 14 62 14 77 0 14 5 38 11
54 6 15 15 51 19 78 5 28 13 68 18 90 6 22 18 76 27 120 9 44 21 98 27 119 5
21 14 60 18 85 5 25 16 75 24 111 21 94 45 205 61 280 8 36 21 97 30 135 9 39
20 93 25 120 5 28 13 66 19 85 5 19 17 71 26 115 9 44 21 98 27 120 5 22 13
60 17 85 5 25 13 65 19 90 6 25 16 68 22 95 7 28 14 57 17 66 4 14 -116 186
-173 248 -13 14 -24 29 -24 33 0 3 -6 13 -13 20 -11 11 -63 77 -197 253 -88
116 -156 202 -167 213 -14 15 -16 25 -6 35 3 4 987 7 2186 7 l2180 0 45 -22z
m-4206 -1153 c6 -6 -9 -81 -66 -340 -8 -33 -21 -94 -30 -135 -8 -41 -23 -106
-32 -145 -9 -38 -20 -91 -24 -116 -5 -25 -13 -64 -18 -85 -6 -21 -18 -75 -27
-119 -9 -44 -23 -105 -30 -135 -7 -30 -21 -91 -30 -135 -16 -78 -26 -124 -59
-270 -38 -176 -45 -205 -60 -280 -10 -44 -21 -96 -26 -115 -5 -19 -15 -66 -24
-105 -46 -218 -66 -313 -90 -420 -8 -33 -21 -96 -31 -140 -9 -44 -23 -107 -30
-140 -7 -33 -21 -94 -30 -135 -9 -41 -22 -102 -30 -135 -7 -33 -21 -96 -30
-140 -9 -44 -21 -98 -27 -119 -5 -21 -14 -60 -18 -85 -5 -25 -16 -75 -24 -111
-8 -36 -22 -101 -31 -145 -10 -44 -23 -107 -31 -140 -21 -98 -45 -207 -55
-254 -11 -56 -15 -60 -113 -126 -128 -86 -224 -176 -278 -260 -97 -148 -141
-290 -164 -525 -15 -158 -14 -206 12 -385 22 -150 62 -255 135 -347 16 -20 29
-41 29 -47 0 -15 -97 -56 -175 -75 -64 -15 -211 -16 -1720 -14 l-1650 3 -40
22 c-72 38 -169 137 -203 206 -43 87 -47 112 -28 193 24 101 42 179 61 269 17
83 33 152 58 265 8 36 23 101 32 145 10 44 23 107 31 140 20 90 40 181 58 270
10 44 21 96 26 115 5 19 16 71 26 115 18 89 38 180 58 270 8 33 21 96 31 140
9 44 23 105 30 135 7 30 21 91 30 135 17 80 29 137 59 270 8 39 18 86 22 105
3 19 13 47 20 62 l14 28 53 -35 c28 -20 59 -38 67 -42 8 -4 33 -18 55 -32 22
-14 48 -30 57 -36 9 -5 101 -62 203 -125 102 -63 196 -121 208 -128 12 -7 34
-21 49 -30 29 -19 387 -240 421 -260 12 -7 36 -22 52 -32 17 -11 40 -24 53
-30 18 -8 22 -17 22 -54 0 -25 -4 -56 -10 -70 -5 -15 -14 -52 -20 -84 -6 -31
-17 -86 -25 -122 -9 -36 -23 -99 -31 -140 -9 -41 -22 -102 -30 -135 -7 -33
-20 -94 -29 -135 -9 -41 -23 -104 -32 -140 -8 -36 -16 -85 -17 -110 l-1 -45
505 0 504 0 17 65 c9 36 25 101 34 145 22 103 58 266 90 410 7 33 21 96 30
140 9 44 21 96 26 115 5 19 14 55 18 80 14 67 39 186 56 260 8 36 22 99 31
140 9 41 22 104 30 140 8 36 19 86 24 111 4 25 13 64 18 85 6 21 18 75 27 119
9 44 23 105 30 135 7 30 21 91 30 135 16 78 26 124 59 270 38 176 45 205 60
280 10 44 21 96 26 115 5 19 16 71 26 115 18 89 38 180 58 270 8 33 21 96 31
140 9 44 23 107 30 140 7 33 21 94 30 135 9 41 23 102 31 135 33 143 33 140
-42 240 -37 50 -70 92 -74 95 -6 5 -122 155 -290 374 -47 61 -104 135 -128
165 -23 29 -40 57 -36 62 5 9 2186 13 2196 4z m2442 -288 c-1 -22 -6 -55 -12
-75 -13 -46 -31 -131 -41 -197 -4 -27 -13 -63 -19 -78 -7 -16 -12 -43 -12 -61
0 -19 -7 -50 -15 -69 -8 -20 -15 -52 -15 -71 0 -18 -7 -47 -15 -62 -8 -16 -15
-45 -15 -65 0 -20 -7 -53 -15 -72 -8 -20 -15 -54 -15 -76 0 -22 -4 -43 -10
-46 -5 -3 -12 -28 -16 -55 l-7 -49 -101 -53 c-55 -29 -119 -61 -141 -72 -22
-10 -107 -53 -189 -93 -81 -41 -150 -72 -153 -69 -3 2 0 13 6 24 6 12 11 38
11 60 0 22 7 53 15 68 8 16 15 47 15 69 1 22 7 51 15 65 8 14 15 43 15 65 0
22 7 51 15 65 8 14 14 44 15 66 0 23 7 55 15 70 8 16 15 47 15 69 1 22 7 51
15 65 8 14 14 44 15 66 0 23 7 55 15 70 8 16 15 47 15 69 1 22 7 51 15 65 8
14 15 43 15 65 0 22 7 51 15 65 8 14 14 46 15 71 0 25 7 54 15 65 8 10 15 34
15 52 l0 32 253 -2 252 -3 -1 -38z m1963 -2316 c93 -22 123 -35 183 -77 124
-88 180 -223 180 -434 0 -184 -43 -314 -141 -424 -27 -30 -49 -61 -49 -69 0
-7 43 -71 95 -140 62 -82 95 -135 95 -152 0 -14 -3 -25 -7 -25 -5 0 -26 -17
-48 -38 -50 -48 -212 -172 -225 -172 -12 0 -32 21 -87 93 -26 34 -53 68 -60
75 -7 7 -13 16 -13 20 0 4 -14 23 -31 42 -17 19 -44 54 -61 77 -38 56 -52 62
-123 54 l-60 -6 -5 -124 c-4 -96 -8 -126 -20 -131 -26 -13 -160 -30 -291 -37
l-126 -6 -6 54 c-4 30 -7 345 -7 700 0 501 3 649 13 661 24 30 350 75 564 77
118 1 169 -3 230 -18z m3691 -175 c2 -150 0 -193 -12 -210 -12 -20 -30 -24
-147 -36 -74 -7 -159 -16 -189 -19 l-55 -6 -3 -497 c-2 -461 -3 -498 -20 -507
-28 -14 -220 -36 -327 -36 l-100 0 -7 45 c-3 25 -7 245 -7 490 -1 245 -5 450
-9 456 -5 8 -26 9 -67 4 -33 -4 -113 -11 -178 -14 l-117 -6 -10 26 c-11 27
-14 334 -4 370 6 24 58 35 259 55 327 32 412 40 540 50 77 5 169 14 205 18 36
5 106 8 155 7 l90 -1 3 -189z m-2756 127 c4 -17 7 -337 6 -710 l-3 -678 -35
-11 c-33 -11 -311 -38 -373 -37 -15 0 -31 3 -35 7 -12 12 -14 1408 -2 1420 15
15 251 44 349 42 l85 -1 8 -32z m589 -52 c35 -48 71 -98 79 -111 8 -12 22 -32
31 -44 9 -11 55 -79 102 -151 99 -150 127 -188 135 -180 3 3 4 124 3 269 -3
263 -2 264 19 276 30 16 405 19 421 3 16 -16 29 -706 19 -1069 -9 -323 -10
-333 -48 -334 -7 0 -20 -4 -30 -9 -38 -21 -130 -43 -197 -48 l-70 -6 -50 72
c-154 223 -419 569 -431 564 -11 -4 -14 -62 -14 -313 0 -269 -2 -309 -16 -321
-22 -18 -379 -20 -411 -1 l-23 13 0 672 c0 370 3 682 6 694 4 16 18 25 53 33
25 6 73 17 106 25 33 8 92 23 130 33 117 32 113 34 186 -67z m-2771 19 c125
-46 182 -83 232 -151 82 -111 100 -176 100 -349 -1 -162 -17 -227 -89 -365 -9
-16 -49 -62 -89 -101 -111 -109 -263 -175 -432 -190 -108 -9 -112 -14 -112
-151 0 -74 -4 -105 -14 -116 -15 -15 -334 -52 -391 -46 -28 4 -30 8 -37 54 -3
28 -7 343 -7 701 -1 510 2 654 12 661 28 22 100 35 342 63 106 12 443 5 485
-10z m-1850 -635 c0 -11 7 -41 15 -67 8 -27 22 -69 30 -95 8 -27 15 -58 15
-69 0 -31 36 -72 71 -79 24 -6 55 5 167 61 75 37 186 91 246 120 60 30 111 54
113 54 1 0 3 -13 3 -30 0 -81 40 -178 56 -136 12 31 19 16 16 -33 -3 -41 -7
-48 -22 -44 -45 12 -69 -109 -32 -158 11 -13 22 -42 25 -63 8 -51 24 -67 42
-43 10 14 14 15 18 5 4 -10 7 -10 15 1 7 9 8 -2 5 -35 -6 -57 -31 -104 -43
-84 -6 9 -9 6 -12 -11 -3 -24 -4 -24 -118 -24 -63 0 -121 -4 -127 -8 -7 -4
-23 -2 -35 5 -18 10 -98 13 -335 13 l-312 0 5 40 c3 22 10 51 15 65 5 14 13
50 18 80 5 30 14 73 19 95 6 22 18 76 27 120 9 44 20 96 24 115 31 126 41 178
41 203 0 16 5 38 11 49 11 21 12 21 25 -3 7 -13 13 -33 14 -44z m5746 44 c4
-6 6 -73 5 -149 -2 -101 2 -148 13 -181 9 -24 16 -47 16 -51 0 -17 -35 -7 -89
25 -31 18 -73 42 -94 53 -52 26 -63 47 -44 87 12 26 14 49 7 117 -5 47 -6 88
-2 92 17 16 178 22 188 7z m-3656 -704 l0 -155 -83 -83 c-69 -70 -92 -102
-135 -188 -29 -57 -52 -116 -52 -132 0 -15 -4 -35 -9 -45 -6 -9 -13 -35 -18
-57 l-7 -40 -4 43 c-2 28 -8 42 -18 42 -10 0 -14 12 -14 45 0 25 -4 45 -9 45
-5 0 -12 20 -15 45 -4 25 -11 45 -17 45 -5 0 -9 13 -9 29 0 16 -7 36 -15 45
-8 8 -15 26 -15 40 0 16 -6 26 -15 26 -11 0 -15 11 -15 40 0 27 -5 43 -15 46
-11 5 -15 24 -15 80 l0 74 28 0 c15 0 40 7 56 15 15 8 37 15 48 15 43 0 228
93 282 142 23 20 47 37 54 38 9 0 12 -37 12 -155z m-3691 -132 c111 -33 208
-86 277 -150 16 -15 46 -42 65 -59 105 -94 161 -394 114 -609 -62 -279 -173
-458 -375 -606 -131 -96 -215 -132 -357 -154 -81 -13 -106 -13 -187 0 -199 29
-316 91 -426 222 -21 25 -50 78 -102 186 -10 21 -24 86 -39 182 -30 192 59
516 187 685 47 63 80 93 229 212 83 66 140 91 250 108 38 6 71 13 73 15 13 13
216 -9 291 -32z m2218 -42 c42 -6 43 -7 30 -31 -7 -14 -20 -52 -30 -85 -10
-33 -23 -73 -29 -90 -5 -16 -13 -46 -17 -65 -4 -19 -13 -45 -19 -57 -7 -12
-12 -36 -12 -54 l0 -33 -20 39 c-18 35 -20 59 -20 218 l0 180 38 -8 c20 -4 56
-10 79 -14z m-1158 -48 c31 -56 85 -138 119 -178 49 -58 80 -102 86 -123 4
-12 18 -30 32 -38 13 -9 24 -21 24 -26 0 -6 14 -27 30 -48 17 -21 30 -41 30
-44 0 -14 74 -105 82 -100 4 3 8 135 8 294 l0 290 23 5 c30 7 287 10 364 4 35
-3 68 -10 75 -17 10 -10 12 -172 13 -710 0 -383 -3 -709 -7 -723 -7 -23 -19
-30 -80 -49 -40 -12 -82 -27 -92 -32 -11 -6 -56 -13 -101 -15 l-81 -6 -50 74
c-27 41 -72 106 -99 144 -67 96 -314 425 -341 454 -22 23 -22 23 -33 3 -7 -14
-11 -128 -11 -346 l0 -326 -27 -7 c-49 -14 -385 -10 -410 5 l-23 13 0 643 c0
354 3 684 6 733 l7 91 46 10 c25 6 75 18 111 27 36 8 88 20 115 26 28 6 57 15
65 20 8 4 31 9 51 9 34 0 38 -4 68 -57z m3351 17 c184 -28 318 -63 344 -90 13
-13 13 -20 0 -55 -7 -22 -14 -50 -14 -61 0 -21 -12 -66 -48 -182 -15 -49 -19
-53 -42 -47 -14 3 -56 11 -95 16 -38 5 -83 14 -99 19 -47 16 -268 12 -310 -5
-47 -20 -70 -56 -62 -97 13 -66 20 -68 211 -68 232 0 295 -18 405 -118 78 -70
94 -104 122 -252 44 -242 -123 -506 -377 -596 -22 -8 -89 -21 -150 -30 -112
-17 -203 -12 -360 17 -27 6 -72 14 -100 19 -27 5 -59 14 -70 19 -11 5 -37 12
-57 16 -20 3 -46 13 -58 23 -22 19 -23 8 15 177 9 39 22 97 29 130 l12 60 45
-1 c41 -1 86 -7 272 -34 131 -19 280 -5 324 32 24 20 34 55 22 85 -19 49 -31
52 -224 53 -221 1 -277 16 -370 98 -107 96 -137 171 -137 343 l-1 115 46 93
c54 107 129 192 219 246 33 19 65 35 71 35 7 0 24 6 38 13 14 8 55 17 92 21
37 3 77 11 89 16 34 13 80 11 218 -10z m-1886 -78 c9 -15 47 -15 186 -2 315
29 324 30 342 13 10 -9 18 -23 18 -31 0 -7 6 -28 14 -45 12 -30 23 -56 62
-159 9 -24 22 -56 29 -73 7 -16 21 -50 30 -75 9 -25 23 -60 31 -78 8 -18 14
-41 14 -50 0 -10 4 -22 8 -27 5 -6 25 -62 46 -125 20 -63 40 -122 45 -130 5
-9 12 -31 16 -50 4 -19 11 -41 15 -50 4 -8 22 -62 40 -120 18 -58 38 -121 45
-140 29 -83 41 -127 37 -138 -5 -16 -65 -42 -117 -52 -22 -4 -60 -12 -85 -18
-90 -22 -227 -44 -249 -40 -20 2 -28 15 -45 70 -12 37 -26 72 -32 78 -8 8 -60
8 -185 0 -96 -6 -181 -13 -190 -16 -18 -5 -49 -77 -49 -114 0 -37 -13 -50 -56
-60 -54 -13 -193 -12 -289 1 -139 19 -128 12 -121 72 4 29 13 72 21 97 8 25
21 72 30 105 31 115 52 194 89 330 10 33 22 78 28 100 6 22 16 60 23 85 7 25
21 72 30 105 38 133 47 163 72 235 14 41 28 91 32 110 4 19 13 45 19 57 7 12
12 30 12 41 0 11 7 33 15 48 8 16 15 39 15 50 0 12 7 27 15 34 8 7 16 20 16
29 1 9 4 0 8 -19 4 -20 11 -41 15 -48z m-4327 -1659 c-477 -2 -1257 -2 -1735
0 -477 1 -86 2 868 2 954 0 1345 -1 867 -2z"/>
<path d="M10525 3232 l-40 -7 -3 -186 c-3 -225 -6 -218 100 -194 88 20 162 58
191 99 18 25 22 45 22 107 0 86 -20 136 -67 163 -31 19 -140 28 -203 18z"/>
<path d="M9248 3154 c-14 -3 -31 -11 -36 -17 -6 -7 -7 -82 -3 -192 l6 -180 64
2 c77 4 176 48 212 96 21 28 24 43 24 117 -1 92 -13 123 -62 155 -26 17 -149
28 -205 19z"/>
<path d="M5821 1603 c-92 -25 -178 -92 -215 -168 -7 -16 -20 -43 -27 -59 -8
-16 -14 -61 -14 -100 0 -87 20 -132 86 -197 43 -41 56 -48 104 -54 129 -17
228 28 311 140 48 65 84 157 84 218 0 93 -69 191 -155 221 -57 19 -100 19
-174 -1z m69 -233 c16 -29 -2 -77 -46 -129 -41 -47 -78 -55 -90 -18 -4 12 -11
25 -16 28 -11 7 15 70 39 90 21 19 73 46 90 48 7 1 17 -8 23 -19z"/>
<path d="M8885 1377 c-8 -13 -19 -43 -25 -68 -26 -117 -38 -168 -45 -179 -4
-6 -1 -18 6 -26 11 -13 26 -15 79 -9 36 4 71 12 78 17 16 14 15 62 -2 101 -7
18 -23 65 -36 105 -12 40 -26 75 -31 77 -4 3 -15 -5 -24 -18z"/>
<path d="M14157 7048 c-20 -16 -24 -41 -13 -92 6 -26 5 -45 -3 -58 -6 -10 -14
-39 -18 -63 -3 -25 -12 -50 -19 -56 -8 -6 -14 -17 -14 -23 0 -23 -110 -169
-182 -240 -90 -90 -104 -106 -90 -106 6 0 46 36 88 80 43 44 84 80 94 80 26 0
139 128 175 199 44 86 58 200 30 237 -8 10 -15 27 -15 37 0 20 -10 22 -33 5z"/>
<path d="M14233 6754 c-22 -43 -61 -108 -86 -144 -49 -71 -190 -217 -283 -295
-100 -84 -228 -199 -247 -223 -10 -12 -26 -29 -35 -38 -14 -15 -14 -17 1 -26
24 -13 24 -93 0 -108 -17 -10 -17 -10 0 -20 22 -14 24 -98 2 -106 -8 -4 -15
-12 -15 -19 0 -7 7 -15 15 -19 9 -3 15 -18 15 -35 0 -25 3 -28 23 -23 28 7 86
43 162 101 205 155 336 303 426 481 73 144 83 187 83 360 1 97 -3 162 -11 174
-9 17 -15 10 -50 -60z"/>
<path d="M14366 6460 c-9 -22 -16 -49 -16 -60 0 -63 -124 -300 -218 -417 -19
-24 -30 -43 -24 -43 6 0 30 24 53 53 24 28 46 54 49 57 15 12 120 171 120 181
0 5 9 27 19 47 40 77 51 114 51 167 0 30 -4 55 -9 55 -5 0 -16 -18 -25 -40z"/>
<path d="M14450 6366 c-5 -15 -10 -32 -10 -37 0 -17 -67 -156 -106 -222 -71
-117 -158 -222 -335 -402 -104 -107 -174 -186 -171 -194 2 -7 -2 -17 -9 -22
-10 -6 -11 -13 -4 -26 12 -21 12 -229 0 -256 -4 -10 -3 -23 3 -29 6 -6 8 -23
5 -39 -7 -36 6 -34 77 12 213 139 425 358 518 536 68 131 106 273 106 398 1
87 -29 258 -50 289 -13 18 -14 18 -24 -8z"/>
<path d="M11302 4999 c-26 -24 -29 -79 -8 -131 8 -19 20 -65 26 -102 18 -99
102 -262 157 -301 25 -18 47 -44 54 -64 21 -61 144 -166 344 -294 178 -113
209 -122 285 -82 14 8 48 23 75 35 28 12 64 28 80 35 17 8 41 19 55 25 14 5
32 14 40 19 8 4 49 24 90 44 143 67 306 149 475 237 269 140 288 150 320 170
17 11 44 27 62 37 131 74 207 131 105 79 -28 -14 -53 -30 -57 -36 -3 -5 -15
-10 -26 -10 -10 0 -19 -5 -19 -10 0 -6 -12 -16 -27 -22 -16 -7 -35 -17 -43
-24 -8 -7 -28 -14 -45 -16 -18 -2 -29 -8 -27 -16 1 -8 -5 -12 -15 -11 -10 2
-29 -1 -42 -5 -19 -6 -21 -10 -10 -18 11 -7 9 -9 -6 -7 -31 2 -65 -12 -65 -27
0 -8 -7 -14 -16 -14 -9 0 -27 -9 -41 -20 -14 -11 -31 -20 -39 -20 -7 0 -14 -5
-16 -11 -2 -6 -16 -11 -31 -11 -16 0 -33 -9 -42 -20 -7 -11 -18 -17 -25 -13
-6 4 -22 -5 -36 -20 -14 -15 -31 -25 -38 -22 -7 3 -19 1 -27 -4 -12 -7 -12 -9
1 -9 13 0 13 -1 0 -10 -9 -5 -17 -5 -20 0 -3 6 -22 1 -43 -10 -20 -11 -43 -20
-51 -20 -8 0 -24 -12 -36 -27 -12 -16 -19 -22 -15 -15 8 15 -31 17 -41 1 -3
-6 -26 -19 -50 -29 -24 -11 -44 -24 -44 -30 0 -6 -5 -8 -10 -5 -6 4 -42 -10
-81 -29 -39 -20 -77 -36 -84 -36 -7 0 -28 -8 -47 -17 -70 -35 -84 -41 -118
-46 -38 -7 -48 -2 -182 77 -206 121 -341 226 -372 286 -13 26 -12 30 5 46 23
21 15 36 -14 25 -46 -17 -79 15 -145 141 -34 64 -46 114 -63 248 -6 52 -17
103 -23 112 -12 17 -14 16 -34 -3z"/>
</g>
</svg>
